<svg width="32" height="32" viewBox="0 0 32 32" xmlns="http://www.w3.org/2000/svg" xmlns:xlink="http://www.w3.org/1999/xlink"><title>Mizhnarodniy_logotip_VK</title><defs><path id="a" d="M0 31.995h31.997V.003H0v31.992z"/></defs><g fill="none" fill-rule="evenodd"><mask id="b" fill="#fff"><use xlink:href="#a"/></mask><path d="M4.93.003h22.136c2.723 0 4.93 2.208 4.93 4.93V27.07c0 2.722-2.207 4.93-4.93 4.93H4.93C2.207 32 0 29.792 0 27.07V4.934C0 2.21 2.207.004 4.93.004" fill="#4B6C91" mask="url(#b)"/><path d="M15.73 22.402h1.31s.394-.044.596-.26c.186-.2.18-.576.18-.576s-.026-1.756.79-2.015c.803-.254 1.835 1.698 2.928 2.45.827.567 1.456.443 1.456.443l2.924-.04s1.53-.095.804-1.298c-.06-.098-.422-.89-2.174-2.516-1.834-1.703-1.588-1.428.62-4.37 1.346-1.794 1.884-2.89 1.716-3.358-.16-.446-1.15-.328-1.15-.328l-3.292.02s-.245-.033-.426.075c-.177.105-.29.352-.29.352s-.52 1.388-1.216 2.568c-1.466 2.49-2.053 2.62-2.292 2.466-.558-.36-.42-1.447-.42-2.22 0-2.412.367-3.418-.71-3.68-.36-.085-.623-.142-1.538-.15-1.175-.013-2.17.002-2.732.278-.375.184-.664.592-.488.616.218.03.71.133.972.488.338.46.326 1.49.326 1.49s.194 2.84-.453 3.193c-.443.243-1.052-.25-2.36-2.51-.668-1.157-1.174-2.436-1.174-2.436s-.098-.24-.27-.366c-.212-.155-.507-.205-.507-.205l-3.13.02s-.47.014-.642.218c-.154.183-.013.56-.013.56s2.45 5.73 5.224 8.618c2.542 2.648 5.43 2.474 5.43 2.474" fill="#FFF"/></g></svg>